<?xml version="1.0" encoding="utf-8"?>
<!-- Generator: Adobe Illustrator 25.2.1, SVG Export Plug-In . SVG Version: 6.00 Build 0)  -->
<svg version="1.1" id="Layer_1" xmlns="http://www.w3.org/2000/svg" xmlns:xlink="http://www.w3.org/1999/xlink" x="0px" y="0px"
	 viewBox="0 0 120 120" style="enable-background:new 0 0 120 120;" xml:space="preserve">
<style type="text/css">
	.st0{fill:#252525;}
</style>
<g>
	<path class="st0" d="M83.18,43.33h-0.96c-5.54,0-10.45,2.71-13.48,6.88c-0.41,0.56-1.28,0.44-1.51-0.22
		c-1.05-3.1-2.6-6.04-4.57-8.65c0,0,0,0,0-0.01c-0.26-0.34-0.23-0.83,0.08-1.13c5.02-4.93,11.89-7.98,19.48-7.98
		c0.46,0,0.91,0.01,1.36,0.03C90.7,32.6,90.31,43.33,83.18,43.33z"/>
	<path class="st0" d="M57.34,78.67c0.26,0.34,0.23,0.83-0.08,1.13c-5.02,4.93-11.89,7.98-19.48,7.98
		c-13.44,0-24.64-9.54-27.22-22.22C10.19,63.76,10,61.9,10,60v-0.38c0.04-2.88,2.44-5.18,5.32-5.18h0.48c3.01,0,5.32,2.49,5.31,5.5
		V60c0,1.96,0.33,3.82,0.96,5.56c2.29,6.47,8.47,11.11,15.71,11.11c5.54,0,10.45-2.71,13.48-6.88c0.41-0.56,1.28-0.44,1.51,0.22
		C53.82,73.12,55.36,76.06,57.34,78.67C57.33,78.67,57.34,78.67,57.34,78.67z"/>
	<path class="st0" d="M110,60c0,1.9-0.19,3.76-0.56,5.56c-2.58,12.68-13.78,22.22-27.22,22.22c-9.09,0-17.16-4.37-22.22-11.11
		c-2.43-3.23-4.17-7.01-5-11.11c-0.37-1.8-0.56-3.66-0.56-5.56c0-1.96-0.33-3.82-0.96-5.56c-2.29-6.47-8.47-11.11-15.71-11.11h-1.12
		c-7.17,0-7.49-10.71-0.33-11.07c0.48-0.02,0.96-0.04,1.45-0.04c9.09,0,17.16,4.37,22.22,11.11c2.43,3.23,4.17,7.01,5,11.11
		c0.37,1.8,0.56,3.66,0.56,5.56c0,1.96,0.33,3.82,0.96,5.56c2.29,6.47,8.47,11.11,15.71,11.11s13.42-4.64,15.71-11.11h-4.6
		c-3.07,0-5.56-2.49-5.56-5.56v0c0-3.07,2.49-5.56,5.56-5.56h11.12c3.04,0,5.54,2.45,5.54,5.5C110,59.96,110,59.98,110,60z"/>
</g>
</svg>
