<?xml version="1.0" encoding="utf-8"?>
<svg viewBox="0 0 256.05 35.088" overflow="visible" xmlns="http://www.w3.org/2000/svg">
  <g id="g3026" style="" transform="matrix(0.429902, 0, 0, 0.429902, 10.098321, 9.559889)">
    <g id="Layer_1">
      <g id="g3029">
        <path fill="#060505" d="M13.299,29.528c-0.324-0.418-0.301-1.136,0.068-2.142l3.785-10.409       c0.374-1.026,0.86-1.777,1.459-2.25c0.602-0.473,1.369-0.706,2.3-0.706h3.507c0.603,0,1.033,0.048,1.293,0.144       c0.257,0.094,0.462,0.278,0.618,0.55c0.131,0.291,0.179,0.551,0.146,0.771c-0.036,0.225-0.209,0.763-0.524,1.619l-3.502,9.636       c-0.484,1.335-1.015,2.239-1.577,2.712c-0.567,0.469-1.404,0.702-2.517,0.702h-2.877       C14.347,30.155,13.619,29.948,13.299,29.528z M31.141,0c0.144,0.807,0.138,1.596-0.019,2.373       c-0.155,0.779-0.592,2.157-1.314,4.142l-1.826,5.015c-0.201-1.61-1.336-2.422-3.412-2.44h-10.42       c-2.111,0-4.005,0.642-5.682,1.92c-1.678,1.282-2.922,3.04-3.736,5.273L0.645,27.509c-0.523,1.446-0.737,2.7-0.645,3.766       c0.096,1.067,0.493,1.942,1.188,2.63c0.718,0.775,2.38,1.17,4.978,1.184h9.024c1.608,0,2.817-0.152,3.635-0.464       c0.816-0.309,1.687-0.936,2.618-1.881l-0.307,2.345h12.058c-0.145-0.805-0.136-1.602,0.021-2.382       c0.156-0.782,0.599-2.169,1.324-4.165L44.925,0H31.141z" id="path3031"/>
        <path fill="#060505" d="M74.217,9.08l-1.212,6.269c-0.565-0.496-1.189-0.844-1.866-1.043       c-0.675-0.195-1.606-0.294-2.791-0.294h-7.691c-1.387,0-2.409,0.208-3.065,0.627c-0.653,0.424-1.195,1.223-1.625,2.405       l-3.768,10.354c-0.388,1.06-0.392,1.785-0.011,2.172c0.38,0.383,1.278,0.575,2.704,0.575h7.251       c1.187,0,2.196-0.096,3.022-0.295c0.832-0.195,1.825-0.586,2.986-1.168l-3.394,6.399h-18.96       c-0.397-0.019-1.571-0.124-3.522-0.314c-1.471-0.308-2.479-1.115-3.022-2.421c-0.545-1.307-0.504-2.809,0.114-4.514       l4.273-11.739c2.116-4.762,5.858-7.1,11.237-7.013H74.217z" id="path3033"/>
        <path fill="#060505" d="M95.08,0l-2.385,6.553H80.025L82.407,0H95.08z M91.771,9.09l-7.086,19.468       c-0.722,1.991-1.163,3.376-1.32,4.155c-0.154,0.779-0.162,1.572-0.018,2.375H68.569c0.75-0.803,1.327-1.596,1.74-2.375       c0.411-0.779,0.979-2.164,1.706-4.155l4.699-12.91c0.725-1.998,1.166-3.386,1.327-4.171c0.157-0.785,0.15-1.58-0.01-2.387       H91.771z" id="path3035"/>
        <path fill="#060505" d="M107.841,9.617l-0.395,2.546c0.87-0.973,1.683-1.641,2.447-2.003       c0.763-0.36,1.749-0.542,2.957-0.542h9.259c1.45,0,2.565,0.168,3.349,0.502c0.781,0.332,1.391,0.914,1.84,1.729       c0.431,0.804,0.629,1.672,0.576,2.607c-0.049,0.94-0.33,2.116-0.847,3.537l-3.843,10.558c-0.703,1.935-1.131,3.283-1.285,4.044       c-0.152,0.756-0.148,1.527,0.012,2.312h-14.375c0.704-0.766,1.258-1.535,1.659-2.299c0.406-0.768,0.958-2.122,1.666-4.057       l3.997-10.983c0.465-1.285,0.604-2.13,0.416-2.537c-0.189-0.412-0.825-0.615-1.905-0.615h-3.786       c-0.816,0-1.449,0.181-1.9,0.539c-0.449,0.361-0.844,1.003-1.184,1.938l-4.244,11.658c-0.698,1.919-1.127,3.263-1.28,4.028       c-0.157,0.768-0.163,1.543-0.017,2.327H86.576c0.729-0.784,1.293-1.556,1.692-2.312c0.403-0.761,0.955-2.109,1.659-4.044       l4.582-12.584c0.697-1.923,1.125-3.271,1.284-4.04c0.157-0.769,0.152-1.538-0.013-2.309H107.841z" id="path3037"/>
        <path fill="#060505" d="M164.305,9.617l-1.105,6.331c-0.65-0.652-1.316-1.068-1.995-1.254       c-0.679-0.187-1.907-0.28-3.679-0.28h-10.492c-1.018,0.018-1.603,0.057-1.748,0.12c-0.395,0.164-0.677,0.486-0.853,0.974       c-0.172,0.471-0.146,0.784,0.077,0.937c0.225,0.157,0.754,0.231,1.594,0.231h9.723c5.166-0.25,6.813,2.104,4.936,7.068       l-1.315,3.622c-0.979,2.673-2.599,4.676-4.884,6.011c-1.032,0.602-2.03,1.007-2.995,1.216c-0.966,0.209-2.31,0.313-4.03,0.313       h-21.623l1.22-6.492c1.224,0.782,2.178,1.262,2.872,1.436c0.688,0.172,1.906,0.259,3.646,0.259h10.812       c0.877,0,1.505-0.094,1.885-0.287c0.372-0.188,0.661-0.557,0.864-1.107c0.199-0.548,0.202-0.91,0.012-1.082       c-0.191-0.178-0.68-0.265-1.471-0.265h-10.971c-1.352,0-2.345-0.132-2.979-0.388c-0.631-0.262-1.112-0.746-1.444-1.449       c-0.548-1.072-0.45-2.68,0.295-4.829l1.464-4.024c0.713-1.958,1.881-3.545,3.496-4.772c1.158-0.894,2.39-1.499,3.685-1.813       c1.295-0.316,3.174-0.473,5.644-0.473H164.305z" id="path3039"/>
        <path fill="#060505" d="M185.584,0.777l-2.32,6.374h-12.326l2.317-6.374H185.584z M182.365,9.617       l-6.891,18.933c-0.706,1.937-1.133,3.283-1.285,4.044c-0.153,0.756-0.158,1.527-0.017,2.312h-14.374       c0.727-0.784,1.293-1.556,1.693-2.312c0.4-0.761,0.952-2.107,1.655-4.044l4.572-12.555c0.706-1.942,1.135-3.294,1.288-4.053       c0.152-0.764,0.152-1.537-0.004-2.325H182.365z" id="path3041"/>
        <path fill="#060505" d="M192.871,29.497c-0.318-0.407-0.292-1.106,0.064-2.089l3.685-10.119       c0.362-0.999,0.838-1.728,1.421-2.189c0.583-0.456,1.33-0.686,2.23-0.686h3.42c0.579,0,0.997,0.045,1.251,0.137       c0.249,0.094,0.453,0.276,0.601,0.539c0.128,0.283,0.174,0.534,0.145,0.751c-0.037,0.216-0.203,0.741-0.509,1.572l-3.411,9.371       c-0.47,1.301-0.981,2.18-1.533,2.635c-0.546,0.464-1.363,0.689-2.445,0.689h-2.795       C193.889,30.107,193.18,29.904,192.871,29.497z M210.223,0.777c0.143,0.783,0.139,1.553-0.015,2.307       c-0.151,0.757-0.577,2.101-1.28,4.029l-1.77,4.878c-0.202-1.565-1.307-2.357-3.324-2.374H193.7       c-2.058,0-3.899,0.623-5.527,1.87c-1.631,1.246-2.839,2.954-3.631,5.125l-3.977,10.925c-0.511,1.401-0.718,2.622-0.627,3.658       c0.091,1.037,0.478,1.889,1.152,2.556c0.703,0.753,2.313,1.138,4.841,1.154h8.78c1.559,0,2.739-0.149,3.534-0.451       c0.794-0.3,1.639-0.913,2.549-1.835l-0.302,2.286h11.729c-0.14-0.786-0.134-1.56,0.02-2.321       c0.154-0.758,0.583-2.11,1.288-4.051l10.101-27.756H210.223z" id="path3043"/>
        <path fill="#060505" d="M233.541,19.922l0.966-2.657c0.479-1.27,0.945-2.08,1.391-2.428       c0.228-0.181,0.442-0.292,0.651-0.335c0.205-0.042,0.651-0.061,1.324-0.061h4.012c0.955,0,1.512,0.164,1.663,0.495       c0.153,0.333,0.015,1.093-0.416,2.281l-0.988,2.705H233.541z M255.059,18.112c0.594-1.631,0.925-2.943,0.991-3.935       c0.066-0.992-0.122-1.853-0.566-2.586c-0.47-0.767-1.132-1.284-1.986-1.547c-0.856-0.269-2.325-0.402-4.406-0.402h-15.5       c-5.754-0.199-9.67,2.649-11.743,8.542l-2.981,8.19c-1.093,3.145-1.134,5.406-0.128,6.775c0.494,0.686,1.195,1.154,2.107,1.402       c0.909,0.253,2.326,0.383,4.259,0.383h22.5l3.072-5.955c-1.367,0.721-3.312,1.104-5.84,1.154h-11.214       c-1.576,0-2.525-0.213-2.849-0.642c-0.324-0.423-0.235-1.32,0.266-2.692l0.755-2.082h20.856L255.059,18.112z" id="path3045"/>
      </g>
    </g>
  </g>
  <text style="white-space: pre; fill: rgb(51, 51, 51); font-family: Arial, sans-serif; font-size: 7.2px;" x="144.69" y="8.785"> </text>
  <text style="white-space: pre; fill: rgb(51, 51, 51); font-family: Arial, sans-serif; font-size: 14.3px;" x="126.897" y="22.849">헤드폰 마이너 갤러리</text>
</svg>