<svg id="Layer_1" data-name="Layer 1" xmlns="http://www.w3.org/2000/svg" viewBox="0 0 120 120"><defs><style>.cls-1{fill:#f1f2f2;}</style></defs><rect class="cls-1" x="10" y="10" width="100" height="100"/><path d="M86.67,90c-9.88,0-17.59-6.14-21.16-16.84A45.51,45.51,0,0,1,63.33,60c0-3.83-1.58-10-3.33-10s-3.29,6.17-3.33,10c0,14.4-7.3,30-23.34,30-9.87,0-17.58-6.14-21.15-16.84A45.51,45.51,0,0,1,10,60H20l10,0c0,3.88,1.58,10,3.33,10s3.34-6.62,3.34-10C36.67,45.55,44,30,60,30c9.88,0,17.59,6.14,21.15,16.84A45.51,45.51,0,0,1,83.33,60c0,3.83,1.59,10,3.34,10S90,63.83,90,60l20,0C110,74.45,102.7,90,86.67,90Z"/></svg>