<svg id="Layer_1" data-name="Layer 1" xmlns="http://www.w3.org/2000/svg" viewBox="0 0 120 120"><defs><style>.cls-1{fill:#f1f2f2;}</style></defs><rect class="cls-1" x="10" y="10" width="100" height="100"/><path d="M91,29C83.17,21.21,73.68,18,69.77,22c-1.79,1.79-2.08,4.76-1.13,8.2L54.21,44.58h0c-8.18-4.51-15.87-5.35-19.8-1.42-5,5-2.27,16.09,5.9,26.51l2.59-3.88L48,58.16h0l.58-.86c1.95-1.95,6.7-.37,10.6,3.54s5.49,8.65,3.54,10.6l-.86.58h0L54.21,77.1l-3.89,2.59c10.43,8.17,21.53,10.89,26.52,5.89,3.93-3.92,3.09-11.61-1.42-19.79L89.85,51.36c3.44,1,6.41.66,8.21-1.13C102,46.33,98.79,36.83,91,29Z"/><path d="M40.31,69.67l-20,30.06,30.05-20A63.49,63.49,0,0,1,45,75,62,62,0,0,1,40.31,69.67Z"/></svg>