<svg id="Layer_1" data-name="Layer 1" xmlns="http://www.w3.org/2000/svg" viewBox="0 0 120 120"><defs><style>.cls-1{fill:#f1f2f2;}</style></defs><rect class="cls-1" x="10" y="10" width="100" height="100"/><path d="M10,60c0,16.57,22.39,30,50,30a80.28,80.28,0,0,0,14.55-1.3L24.64,38.79C15.6,44.23,10,51.72,10,60Z"/><path d="M110,60c0-16.57-22.39-30-50-30a80.28,80.28,0,0,0-14.55,1.3l49.9,49.91a62.13,62.13,0,0,1-20.8,7.49l13.73,13.73,14.15-14.15-7.07-7.07C104.4,75.77,110,68.28,110,60Z"/><path d="M31.72,17.57,17.57,31.72l7.07,7.07A62.1,62.1,0,0,1,45.45,31.3Z"/></svg>