<svg id="Layer_1" data-name="Layer 1" xmlns="http://www.w3.org/2000/svg" viewBox="0 0 120 120"><defs><style>.cls-1{fill:#252627;}</style></defs><path class="cls-1" d="M80.37,85c-12.63,0-18.92-6.89-22-12.67A30.8,30.8,0,0,1,55,60.18V60a20.12,20.12,0,0,0-2.1-8c-2.46-4.7-6.68-7-12.9-7s-10.44,2.28-12.9,7A20.1,20.1,0,0,0,25,60a5,5,0,0,1-5,5h0a5,5,0,0,1-5-5c0-8.65,5.22-25,25-25S65,51.2,65,59.87C65.1,61.67,66.3,75,80.37,75c6,0,10.16-2.27,12.56-7A20.49,20.49,0,0,0,95,60a5,5,0,0,1,5-5h0a5,5,0,0,1,5,5,30,30,0,0,1-3,12.2C98,80.46,90.29,85,80.37,85Z"/></svg>