<svg id="Layer_1" data-name="Layer 1" xmlns="http://www.w3.org/2000/svg" viewBox="0 0 120 120"><defs><style>.cls-1{fill:#252627;}</style></defs><path class="cls-1" d="M78.07,30.48A28.68,28.68,0,0,1,89.52,41.93l-2.33-.64L83.49,45,69.05,59.43l-4.78,4.78,3.27,5.93c2.61,4.74,2.9,7.76,2.79,8.93a3,3,0,0,1-.45,0c-2.64,0-7.89-1.7-14-6.48l-4.75-3.74-3.74-4.75c-5.55-7.09-6.65-12.6-6.48-14.45l.46,0c1,0,3.89.28,8.49,2.81l5.93,3.27L60.57,51,75,36.51l3.71-3.7-.64-2.33M74.41,20.27A6.34,6.34,0,0,0,69.77,22c-1.79,1.79-2.08,4.76-1.13,8.2L54.21,44.58C49.57,42,45.1,40.65,41.37,40.65a9.54,9.54,0,0,0-7,2.51c-5,5-2.27,16.09,5.9,26.51L23,95.58a1,1,0,0,0,.83,1.55,1,1,0,0,0,.55-.17L50.33,79.69c6.87,5.38,14,8.4,19.55,8.4a9.52,9.52,0,0,0,7-2.5c3.93-3.93,3.08-11.62-1.42-19.8L89.85,51.36a13.62,13.62,0,0,0,3.58.53,6.32,6.32,0,0,0,4.62-1.66C102,46.32,98.79,36.83,91,29c-5.54-5.54-11.93-8.75-16.57-8.75Z"/></svg>