<svg id="Layer_1" data-name="Layer 1" xmlns="http://www.w3.org/2000/svg" viewBox="0 0 120 120"><defs><style>.cls-1{fill:#f1f2f2;}</style></defs><rect class="cls-1" x="10" y="10" width="100" height="100"/><path d="M40.31,69.67l-20,30.06,30.06-20c8.47,6.64,17.39,9.68,23.11,7.9l-41-41C30.63,52.28,33.67,61.2,40.31,69.67Z"/><path d="M89.85,51.36c3.44,1,6.41.66,8.2-1.13C102,46.32,98.79,36.83,91,29S73.68,18,69.77,22c-1.79,1.79-2.08,4.76-1.13,8.2L56.47,42.32,77.68,63.53Z"/><path d="M54.21,44.58l2.26-2.26L31.72,17.57,17.57,31.72,32.41,46.56a8,8,0,0,1,2-3.4C38.34,39.23,46,40.08,54.21,44.58Z"/><path d="M77.68,63.53l-2.26,2.26c4.5,8.18,5.35,15.87,1.42,19.8a8,8,0,0,1-3.4,2l14.84,14.84,14.15-14.15Z"/></svg>